<?xml version="1.0" encoding="UTF-8"?>
<svg id="Layer_1" data-name="Layer 1" xmlns="http://www.w3.org/2000/svg" viewBox="0 0 177.79 97.1">
  <defs>
    <style>
      .cls-1 {
        fill: #fff;
        stroke-width: 0px;
      }
    </style>
  </defs>
  <polygon class="cls-1" points="42.14 74.16 43.06 72.82 41.22 72.82 42.14 74.16"/>
  <polygon class="cls-1" points="41.22 72.82 9.59 72.82 26.33 97.1 26.33 97.1 42.14 74.16 41.22 72.82"/>
  <polygon class="cls-1" points="94.91 74.37 95.98 72.82 93.85 72.82 94.91 74.37"/>
  <polygon class="cls-1" points="31.64 58.91 0 58.91 9.59 72.82 41.22 72.82 31.64 58.91"/>
  <polygon class="cls-1" points="43.06 72.82 42.14 74.16 57.93 97.1 57.93 97.1 68.46 81.83 62.25 72.82 43.06 72.82"/>
  <polygon class="cls-1" points="26.33 97.1 57.93 97.1 42.14 74.16 26.33 97.1"/>
  <polygon class="cls-1" points="62.25 72.82 68.46 81.83 74.67 72.82 62.25 72.82"/>
  <polygon class="cls-1" points="91.4 48.55 108.14 24.27 76.53 24.27 68.46 35.98 77.12 48.55 91.4 48.55"/>
  <polygon class="cls-1" points="68.46 35.98 61.52 46.04 59.8 48.55 77.12 48.55 68.46 35.98"/>
  <polygon class="cls-1" points="68.46 35.98 61.52 46.04 68.46 35.98 68.46 35.98"/>
  <polygon class="cls-1" points="84.26 58.91 91.4 48.55 77.12 48.55 84.26 58.91"/>
  <polygon class="cls-1" points="43.06 72.82 62.25 72.82 52.65 58.91 43.06 72.82"/>
  <polygon class="cls-1" points="62.25 72.82 74.67 72.82 84.26 58.91 77.12 48.55 59.8 48.55 52.65 58.91 62.25 72.82"/>
  <polygon class="cls-1" points="124.87 0 93.26 0 76.53 24.27 108.14 24.27 124.87 0"/>
  <polygon class="cls-1" points="161.05 24.27 129.44 24.27 112.71 48.55 144.31 48.55 161.05 24.27"/>
  <polygon class="cls-1" points="94.91 74.37 110.58 97.1 110.84 97.1 127.58 72.82 95.98 72.82 94.91 74.37"/>
  <polygon class="cls-1" points="79.24 97.1 110.58 97.1 94.91 74.37 79.24 97.1"/>
  <polygon class="cls-1" points="112.71 48.55 95.98 72.82 127.58 72.82 144.31 48.55 112.71 48.55"/>
  <polygon class="cls-1" points="177.79 0 146.17 0 129.44 24.27 161.05 24.27 177.79 0"/>
  <polygon class="cls-1" points="85.48 60.68 77.12 72.82 93.85 72.82 85.48 60.68"/>
  <g>
    <polygon class="cls-1" points="93.85 72.82 77.12 72.82 70.91 81.83 69.68 83.61 78.98 97.1 79.24 97.1 94.91 74.37 93.85 72.82"/>
    <rect class="cls-1" x="71.56" y="71.86" width="0" height="10.94"/>
  </g>
</svg>