<?xml version="1.0" encoding="UTF-8"?>
<svg id="Layer_1" data-name="Layer 1" xmlns="http://www.w3.org/2000/svg" viewBox="0 0 512 512">
  <defs>
    <style>
      .cls-1 {
        fill: #3786b7;
      }

      .cls-1, .cls-2, .cls-3, .cls-4, .cls-5, .cls-6, .cls-7 {
        stroke-width: 0px;
      }

      .cls-2 {
        fill: none;
      }

      .cls-3 {
        fill: #143a61;
      }

      .cls-4 {
        fill: #6b7280;
      }

      .cls-5 {
        fill: #005b85;
      }

      .cls-6 {
        fill: #fff;
      }

      .cls-7 {
        fill: #006b9a;
      }
    </style>
  </defs>
  <rect class="cls-6" width="512" height="512"/>
  <g>
    <polygon class="cls-2" points="51.88 277.41 51.44 278.24 51 277.41 51.88 277.41"/>
    <polygon class="cls-3" points="67.74 277.41 64.82 282.97 59.87 292.41 43 292.41 35.13 277.41 51 277.41 51.44 278.24 51.88 277.41 67.74 277.41"/>
    <polygon class="cls-2" points="76.76 277.41 76.26 278.37 75.77 277.41 76.76 277.41"/>
    <polygon class="cls-5" points="75.62 262.41 72.26 268.82 67.74 277.41 51.88 277.41 56.39 268.82 59.75 262.41 75.62 262.41"/>
    <polygon class="cls-5" points="46.5 268.82 51 277.41 35.13 277.41 30.61 268.82 46.5 268.82"/>
    <polygon class="cls-7" points="110.38 247.4 102.5 262.41 86.63 262.41 94.5 247.4 110.38 247.4"/>
    <polygon class="cls-1" points="75.49 232.41 91.36 232.41 83.49 247.4 67.62 247.4 75.49 232.41"/>
    <polygon class="cls-1" points="118.25 232.41 110.38 247.4 94.5 247.4 102.38 232.41 118.25 232.41"/>
    <polygon class="cls-7" points="83.49 247.4 75.62 262.41 59.75 262.41 60.56 260.86 63.82 254.65 67.62 247.4 83.49 247.4"/>
    <polygon class="cls-5" points="72.83 269.91 77.77 277.41 68.9 277.41 72.83 269.91"/>
    <polygon class="cls-5" points="102.5 262.41 94.63 277.41 78.76 277.41 86.63 262.41 102.5 262.41"/>
    <polygon class="cls-3" points="94.63 277.41 86.76 292.41 70.77 292.41 65.4 284.07 65.97 282.97 68.89 277.41 77.77 277.41 78.26 278.37 78.76 277.41 94.63 277.41"/>
  </g>
  <g>
    <path class="cls-4" d="M140.08,284.91l-9.38-34.76h6.7l4.53,18.5c.31,1.34.6,2.75.87,4.22s.54,2.96.79,4.46.5,2.96.73,4.39h-1c.26-1.43.53-2.89.79-4.39.26-1.49.54-2.98.84-4.46s.61-2.88.93-4.22l4.71-18.5h6.6l4.69,18.5c.34,1.34.66,2.75.94,4.22.29,1.48.57,2.96.84,4.46.27,1.49.55,2.96.83,4.39h-1.07c.25-1.43.5-2.89.76-4.39s.52-2.98.8-4.46c.28-1.48.58-2.88.89-4.22l4.5-18.5h6.72l-9.4,34.76h-7.14l-5.06-19.2c-.47-1.79-.87-3.73-1.22-5.83s-.73-4.32-1.13-6.67h1.49c-.44,2.27-.81,4.44-1.12,6.5-.31,2.06-.72,4.06-1.24,6.01l-5.06,19.2h-7.14Z"/>
    <path class="cls-4" d="M187.56,269.63v15.28h-6.07v-34.76h5.97v15.12h-.63c.73-2.25,1.8-3.95,3.22-5.07,1.42-1.13,3.19-1.69,5.32-1.69,1.79,0,3.36.38,4.7,1.14,1.34.76,2.39,1.88,3.13,3.34s1.11,3.24,1.11,5.34v16.59h-6.09v-15.65c0-1.74-.45-3.11-1.35-4.11-.9-1-2.15-1.49-3.73-1.49-1.07,0-2.03.23-2.87.7-.84.47-1.5,1.15-1.98,2.04s-.72,1.97-.72,3.23Z"/>
    <path class="cls-4" d="M213.78,255.14c-.96,0-1.79-.33-2.48-.98s-1.04-1.43-1.04-2.33.35-1.72,1.04-2.37c.69-.65,1.52-.97,2.48-.97s1.82.32,2.51.97c.69.65,1.04,1.43,1.04,2.34s-.35,1.7-1.04,2.36c-.69.65-1.53.98-2.51.98ZM210.75,284.91v-26.08h6.07v26.08h-6.07Z"/>
    <path class="cls-4" d="M235.31,258.83v4.76h-14.81v-4.76h14.81ZM224.21,252.62h6.07v24.94c0,.95.2,1.64.61,2.09s1.07.67,1.98.67c.28,0,.65-.04,1.11-.11.46-.07.83-.14,1.11-.2l.96,4.69c-.67.2-1.35.35-2.05.43-.7.08-1.37.13-2.01.13-2.5,0-4.42-.62-5.76-1.87-1.34-1.24-2.01-3.02-2.01-5.32v-25.45Z"/>
    <path class="cls-4" d="M251.18,285.45c-2.63,0-4.89-.55-6.78-1.66-1.89-1.1-3.34-2.66-4.36-4.67-1.02-2.01-1.53-4.37-1.53-7.09s.5-5.05,1.5-7.07c1-2.02,2.43-3.6,4.27-4.75,1.84-1.14,4.01-1.71,6.5-1.71,1.59,0,3.1.26,4.54.77s2.71,1.31,3.83,2.38,1.98,2.44,2.61,4.09.94,3.63.94,5.91v1.91h-21.32v-4.13h18.31l-2.85,1.21c0-1.46-.23-2.75-.68-3.86s-1.12-1.98-2.02-2.6-2.01-.93-3.35-.93-2.47.32-3.41.95-1.64,1.47-2.13,2.52c-.49,1.05-.73,2.22-.73,3.51v2.85c0,1.65.28,3.04.84,4.18.56,1.14,1.35,1.99,2.36,2.57,1.01.58,2.19.86,3.52.86.89,0,1.69-.13,2.41-.38s1.35-.64,1.88-1.14c.53-.5.93-1.12,1.19-1.85l5.58,1.14c-.42,1.4-1.13,2.62-2.15,3.67-1.01,1.05-2.27,1.87-3.79,2.45-1.52.58-3.25.87-5.19.87Z"/>
    <path class="cls-4" d="M280.22,284.91v-34.76h22.26v5.25h-16.03v10.43h14.46v5.18h-14.46v13.9h-6.23Z"/>
    <path class="cls-4" d="M311.06,255.14c-.96,0-1.79-.33-2.48-.98s-1.04-1.43-1.04-2.33.35-1.72,1.04-2.37c.69-.65,1.52-.97,2.48-.97s1.82.32,2.51.97c.69.65,1.04,1.43,1.04,2.34s-.35,1.7-1.04,2.36c-.69.65-1.53.98-2.51.98ZM308.03,284.91v-26.08h6.07v26.08h-6.07Z"/>
    <path class="cls-4" d="M326.6,269.63v15.28h-6.07v-26.08h5.74l.09,6.44h-.49c.73-2.25,1.8-3.95,3.22-5.07s3.19-1.69,5.32-1.69c1.79,0,3.35.38,4.69,1.14,1.34.76,2.38,1.88,3.11,3.34s1.11,3.24,1.11,5.34v16.59h-6.07v-15.65c0-1.74-.45-3.11-1.35-4.11-.9-1-2.15-1.49-3.73-1.49-1.07,0-2.03.23-2.87.7s-1.5,1.15-1.98,2.04c-.48.89-.72,1.97-.72,3.23Z"/>
    <path class="cls-4" d="M357.05,285.45c-1.65,0-3.13-.3-4.46-.9-1.32-.6-2.36-1.48-3.13-2.65-.76-1.17-1.14-2.6-1.14-4.32,0-1.48.28-2.7.83-3.66.55-.96,1.3-1.73,2.24-2.31s2-1.01,3.18-1.31c1.18-.29,2.41-.5,3.69-.63,1.51-.17,2.74-.32,3.69-.44.95-.12,1.64-.33,2.09-.61s.67-.71.67-1.31v-.12c0-.86-.17-1.58-.51-2.18-.34-.6-.85-1.06-1.53-1.38-.68-.32-1.51-.48-2.51-.48s-1.89.16-2.62.47c-.74.31-1.34.71-1.81,1.21-.47.5-.81,1.03-1.03,1.61l-5.62-1.14c.51-1.54,1.31-2.81,2.38-3.81,1.07-1,2.35-1.75,3.84-2.25,1.48-.5,3.1-.75,4.84-.75,1.23,0,2.47.14,3.72.43s2.4.77,3.44,1.46,1.88,1.6,2.52,2.75.96,2.6.96,4.34v17.43h-5.81v-3.59h-.23c-.39.73-.92,1.41-1.6,2.04-.68.63-1.52,1.14-2.52,1.52-1,.38-2.19.57-3.56.57ZM358.61,280.95c1.26,0,2.34-.25,3.25-.75.91-.5,1.62-1.15,2.12-1.97.51-.82.76-1.71.76-2.67v-3.08c-.2.16-.54.3-1.01.44-.47.14-1,.26-1.59.37-.58.11-1.16.2-1.73.28-.57.08-1.05.14-1.43.19-.9.12-1.72.33-2.45.61-.73.28-1.3.67-1.71,1.18-.41.51-.62,1.16-.62,1.97,0,.75.19,1.37.57,1.88.38.51.9.89,1.56,1.16.66.26,1.42.4,2.27.4Z"/>
    <path class="cls-4" d="M383.27,269.63v15.28h-6.07v-26.08h5.74l.09,6.44h-.49c.73-2.25,1.8-3.95,3.22-5.07s3.19-1.69,5.32-1.69c1.79,0,3.35.38,4.69,1.14,1.34.76,2.38,1.88,3.11,3.34s1.11,3.24,1.11,5.34v16.59h-6.07v-15.65c0-1.74-.45-3.11-1.35-4.11-.9-1-2.15-1.49-3.73-1.49-1.07,0-2.03.23-2.87.7s-1.5,1.15-1.98,2.04c-.48.89-.72,1.97-.72,3.23Z"/>
    <path class="cls-4" d="M417.75,285.45c-2.54,0-4.74-.56-6.6-1.69-1.87-1.13-3.31-2.7-4.33-4.71-1.02-2.01-1.53-4.36-1.53-7.03s.51-5.07,1.53-7.1c1.02-2.03,2.46-3.61,4.33-4.72,1.87-1.12,4.07-1.68,6.6-1.68,1.45,0,2.79.19,4.04.56s2.36.91,3.34,1.62c.98.71,1.8,1.57,2.46,2.58.66,1.01,1.13,2.15,1.41,3.43l-5.67,1.19c-.17-.67-.42-1.28-.74-1.83-.32-.55-.71-1.02-1.18-1.41s-1-.69-1.61-.9c-.61-.21-1.28-.31-2.01-.31-1.42,0-2.59.38-3.52,1.13-.93.75-1.63,1.77-2.1,3.06-.47,1.28-.7,2.74-.7,4.37s.23,3.05.7,4.34c.47,1.29,1.17,2.31,2.1,3.07.93.75,2.11,1.13,3.52,1.13.75,0,1.43-.11,2.04-.33.61-.22,1.16-.53,1.63-.93.47-.4.87-.89,1.2-1.47.33-.58.57-1.21.72-1.91l5.67,1.19c-.28,1.31-.75,2.47-1.41,3.5-.66,1.03-1.49,1.9-2.47,2.62-.99.72-2.11,1.28-3.36,1.67s-2.61.58-4.07.58Z"/>
    <path class="cls-4" d="M445.79,285.45c-2.63,0-4.89-.55-6.78-1.66-1.89-1.1-3.34-2.66-4.36-4.67-1.02-2.01-1.53-4.37-1.53-7.09s.5-5.05,1.5-7.07c1-2.02,2.43-3.6,4.27-4.75,1.84-1.14,4.01-1.71,6.5-1.71,1.59,0,3.1.26,4.54.77,1.44.51,2.71,1.31,3.83,2.38,1.11,1.07,1.98,2.44,2.61,4.09s.95,3.63.95,5.91v1.91h-21.32v-4.13h18.31l-2.85,1.21c0-1.46-.23-2.75-.68-3.86-.45-1.11-1.12-1.98-2.02-2.6s-2.01-.93-3.35-.93-2.47.32-3.41.95c-.93.63-1.64,1.47-2.13,2.52-.49,1.05-.73,2.22-.73,3.51v2.85c0,1.65.28,3.04.84,4.18.56,1.14,1.34,1.99,2.36,2.57,1.01.58,2.18.86,3.52.86.89,0,1.69-.13,2.41-.38.72-.26,1.35-.64,1.88-1.14.53-.5.92-1.12,1.19-1.85l5.58,1.14c-.42,1.4-1.14,2.62-2.15,3.67-1.01,1.05-2.28,1.87-3.79,2.45-1.52.58-3.25.87-5.19.87Z"/>
    <path class="cls-4" d="M472.39,285.45c-2.01,0-3.78-.29-5.32-.86-1.54-.58-2.8-1.42-3.79-2.52-.99-1.1-1.63-2.44-1.92-4.01l5.67-1.07c.36,1.29.99,2.25,1.9,2.88.91.63,2.1.94,3.58.94s2.68-.3,3.56-.9c.88-.6,1.32-1.34,1.32-2.23,0-.75-.29-1.36-.86-1.85-.58-.49-1.46-.87-2.66-1.13l-4.46-.96c-2.46-.53-4.29-1.4-5.51-2.61-1.21-1.21-1.82-2.78-1.82-4.69,0-1.62.44-3.02,1.33-4.2.89-1.18,2.12-2.1,3.7-2.75,1.58-.65,3.41-.98,5.49-.98,1.97,0,3.67.28,5.1.84,1.42.56,2.57,1.34,3.45,2.34.88,1,1.49,2.18,1.83,3.53l-5.41,1.07c-.3-.92-.83-1.69-1.61-2.32s-1.87-.94-3.29-.94c-1.29,0-2.37.28-3.23.85-.86.57-1.29,1.29-1.29,2.18,0,.76.29,1.39.86,1.89.58.5,1.52.89,2.85,1.17l4.43.93c2.47.53,4.31,1.38,5.51,2.54,1.2,1.17,1.8,2.67,1.8,4.5,0,1.65-.47,3.1-1.42,4.35-.95,1.25-2.27,2.23-3.95,2.94-1.69.71-3.63,1.06-5.82,1.06Z"/>
  </g>
</svg>