<?xml version="1.0" encoding="UTF-8"?>
<svg id="Layer_1" data-name="Layer 1" xmlns="http://www.w3.org/2000/svg" viewBox="0 0 250 250">
  <defs>
    <style>
      .cls-1 {
        fill: #133a61;
      }

      .cls-1, .cls-2, .cls-3, .cls-4, .cls-5, .cls-6 {
        stroke-width: 0px;
      }

      .cls-2 {
        fill: none;
      }

      .cls-3 {
        fill: #006b99;
      }

      .cls-4 {
        fill: #3786b6;
      }

      .cls-5 {
        fill: #fff;
      }

      .cls-6 {
        fill: #005a85;
      }
    </style>
  </defs>
  <rect class="cls-5" width="250" height="250"/>
  <g>
    <polygon class="cls-2" points="78.25 155.79 79.17 154.45 77.33 154.45 78.25 155.79"/>
    <polygon class="cls-1" points="77.33 154.45 45.7 154.45 62.44 178.73 62.44 178.73 78.25 155.79 77.33 154.45"/>
    <polygon class="cls-2" points="131.02 156 132.08 154.45 129.96 154.45 131.02 156"/>
    <polygon class="cls-6" points="67.75 140.54 36.11 140.54 45.7 154.45 77.33 154.45 67.75 140.54"/>
    <polygon class="cls-1" points="79.17 154.45 78.25 155.79 94.03 178.73 94.04 178.73 104.56 163.46 98.35 154.45 79.17 154.45"/>
    <polygon class="cls-1" points="62.44 178.73 94.03 178.73 78.25 155.79 62.44 178.73"/>
    <polygon class="cls-1" points="98.35 154.45 104.56 163.46 110.77 154.45 98.35 154.45"/>
    <polygon class="cls-3" points="127.51 130.18 144.24 105.91 112.64 105.91 104.56 117.62 113.22 130.18 127.51 130.18"/>
    <polygon class="cls-3" points="104.56 117.62 97.63 127.68 95.9 130.18 113.22 130.18 104.56 117.62"/>
    <polygon class="cls-4" points="104.56 117.62 97.63 127.68 104.56 117.62 104.56 117.62"/>
    <polygon class="cls-6" points="120.37 140.54 127.51 130.18 113.22 130.18 120.37 140.54"/>
    <polygon class="cls-6" points="79.17 154.45 98.35 154.45 88.76 140.54 79.17 154.45"/>
    <polygon class="cls-6" points="98.35 154.45 110.77 154.45 120.37 140.54 113.22 130.18 95.9 130.18 88.76 140.54 98.35 154.45"/>
    <polygon class="cls-4" points="160.98 81.63 129.37 81.63 112.64 105.91 144.24 105.91 160.98 81.63"/>
    <polygon class="cls-3" points="197.16 105.91 165.55 105.91 148.82 130.18 180.42 130.18 197.16 105.91"/>
    <polygon class="cls-1" points="131.02 156 146.69 178.73 146.95 178.73 163.69 154.45 132.08 154.45 131.02 156"/>
    <polygon class="cls-1" points="115.35 178.73 146.69 178.73 131.02 156 115.35 178.73"/>
    <polygon class="cls-6" points="148.82 130.18 132.08 154.45 163.69 154.45 180.42 130.18 148.82 130.18"/>
    <polygon class="cls-4" points="213.89 81.63 182.28 81.63 165.55 105.91 197.16 105.91 213.89 81.63"/>
    <polygon class="cls-6" points="121.59 142.32 113.22 154.45 129.96 154.45 121.59 142.32"/>
    <g>
      <polygon class="cls-1" points="129.96 154.45 113.22 154.45 107.01 163.46 105.79 165.24 115.09 178.73 115.35 178.73 131.02 156 129.96 154.45"/>
      <rect class="cls-1" x="107.67" y="153.49" width="0" height="10.94"/>
    </g>
  </g>
</svg>