<?xml version="1.0" encoding="UTF-8"?>
<svg id="Layer_1" data-name="Layer 1" xmlns="http://www.w3.org/2000/svg" viewBox="0 0 431.05 52.35">
  <defs>
    <style>
      .cls-1 {
        fill: #133a61;
      }

      .cls-1, .cls-2, .cls-3, .cls-4, .cls-5 {
        stroke-width: 0px;
      }

      .cls-2 {
        fill: none;
      }

      .cls-3 {
        fill: #006b99;
      }

      .cls-4 {
        fill: #3786b6;
      }

      .cls-5 {
        fill: #005a85;
      }
    </style>
  </defs>
  <g>
    <path class="cls-4" d="M113.16,41.84l-8.51-31.72h7.09l3.68,15.6c.3,1.31.57,2.7.82,4.18.25,1.48.49,2.97.73,4.47.24,1.5.48,2.93.7,4.31h-1.15c.26-1.38.51-2.81.77-4.31.26-1.5.52-2.99.79-4.47.27-1.48.57-2.88.89-4.18l3.87-15.6h6.75l3.85,15.6c.33,1.31.62,2.7.89,4.18.27,1.48.54,2.97.8,4.47.26,1.5.52,2.93.78,4.31h-1.19c.24-1.38.48-2.81.71-4.31s.48-2.99.75-4.47c.26-1.48.54-2.88.82-4.18l3.68-15.6h7.11l-8.54,31.72h-7.41l-4.21-16.22c-.45-1.8-.84-3.75-1.16-5.85-.32-2.1-.68-4.26-1.08-6.49h1.62c-.44,2.17-.8,4.29-1.07,6.36-.28,2.07-.66,4.06-1.16,5.98l-4.19,16.22h-7.43Z"/>
    <path class="cls-4" d="M157.95,28.07v13.77h-6.39V10.13h6.26v13.86h-.51c.62-1.99,1.57-3.52,2.84-4.61,1.27-1.09,2.91-1.63,4.93-1.63,1.65,0,3.08.36,4.31,1.07,1.23.72,2.18,1.75,2.86,3.09.68,1.34,1.02,2.94,1.02,4.8v15.13h-6.41v-14.03c0-1.48-.38-2.63-1.14-3.47s-1.81-1.26-3.16-1.26c-.89,0-1.69.19-2.4.59-.7.39-1.25.95-1.64,1.69s-.58,1.64-.58,2.7Z"/>
    <path class="cls-4" d="M181.89,14.94c-.96,0-1.79-.32-2.47-.96-.68-.64-1.02-1.41-1.02-2.32s.34-1.68,1.02-2.32,1.5-.96,2.47-.96,1.79.32,2.48.96c.69.64,1.03,1.41,1.03,2.32s-.34,1.68-1.03,2.32c-.69.64-1.52.96-2.48.96ZM178.7,41.84v-23.8h6.39v23.8h-6.39Z"/>
    <path class="cls-4" d="M202.33,18.05v4.87h-14.11v-4.87h14.11ZM191.49,12.38h6.39v22.5c0,.75.17,1.31.5,1.67.33.36.89.54,1.67.54.24,0,.58-.03,1.02-.1s.77-.12,1-.18l.92,4.79c-.71.21-1.42.36-2.12.45s-1.37.13-2.01.13c-2.38,0-4.21-.58-5.47-1.75-1.26-1.16-1.89-2.83-1.89-5V12.38Z"/>
    <path class="cls-4" d="M216.8,42.31c-2.43,0-4.52-.5-6.28-1.49-1.76-.99-3.11-2.41-4.06-4.24s-1.42-4-1.42-6.51.47-4.6,1.4-6.45c.94-1.85,2.26-3.29,3.98-4.32,1.72-1.04,3.73-1.55,6.05-1.55,1.56,0,3.02.25,4.36.75,1.35.5,2.53,1.25,3.55,2.25,1.02,1,1.82,2.25,2.4,3.76.57,1.5.86,3.28.86,5.32v1.79h-19.99v-4h16.86l-2.98,1.06c0-1.23-.19-2.31-.56-3.22-.38-.92-.94-1.62-1.68-2.13-.75-.5-1.66-.76-2.76-.76s-2.05.26-2.82.77c-.77.51-1.36,1.2-1.76,2.08-.4.87-.6,1.87-.6,2.99v2.83c0,1.38.23,2.53.69,3.47.46.94,1.11,1.64,1.94,2.11s1.8.7,2.91.7c.75,0,1.43-.11,2.04-.32.61-.21,1.13-.53,1.56-.95.43-.42.76-.93.99-1.54l5.79,1.09c-.38,1.31-1.05,2.45-2,3.44s-2.14,1.75-3.57,2.29-3.07.81-4.93.81Z"/>
    <path class="cls-4" d="M242.5,41.84V10.13h20.86v5.39h-14.37v8.85h12.96v5.3h-12.96v12.18h-6.49Z"/>
    <path class="cls-4" d="M271.13,14.94c-.97,0-1.79-.32-2.47-.96-.68-.64-1.02-1.41-1.02-2.32s.34-1.68,1.02-2.32c.68-.64,1.5-.96,2.47-.96s1.79.32,2.48.96,1.03,1.41,1.03,2.32-.34,1.68-1.03,2.32c-.69.64-1.51.96-2.48.96ZM267.93,41.84v-23.8h6.39v23.8h-6.39Z"/>
    <path class="cls-4" d="M286.13,28.07v13.77h-6.39v-23.8h6.02l.11,5.94h-.38c.62-1.99,1.57-3.52,2.84-4.61,1.27-1.09,2.91-1.63,4.93-1.63,1.65,0,3.08.36,4.31,1.07,1.23.72,2.18,1.75,2.85,3.09.67,1.34,1.01,2.94,1.01,4.8v15.13h-6.39v-14.03c0-1.48-.38-2.63-1.14-3.47s-1.81-1.26-3.16-1.26c-.89,0-1.69.19-2.39.59s-1.25.95-1.64,1.69c-.39.74-.59,1.64-.59,2.7Z"/>
    <path class="cls-4" d="M313.53,42.31c-1.5,0-2.86-.27-4.06-.8s-2.14-1.33-2.83-2.38-1.03-2.37-1.03-3.95c0-1.32.25-2.43.73-3.32.49-.89,1.16-1.61,2-2.15.84-.54,1.8-.95,2.87-1.23,1.07-.28,2.2-.48,3.37-.6,1.38-.14,2.49-.27,3.33-.39.84-.12,1.46-.31,1.85-.58.39-.26.59-.65.59-1.16v-.11c0-.68-.14-1.26-.43-1.72-.28-.47-.71-.83-1.27-1.08s-1.24-.37-2.03-.37-1.54.12-2.15.37c-.61.25-1.11.58-1.49.99-.38.41-.67.87-.85,1.38l-5.85-.96c.41-1.39,1.09-2.57,2.04-3.53.95-.96,2.13-1.7,3.54-2.21,1.41-.51,3-.77,4.78-.77,1.28,0,2.52.15,3.73.46,1.21.31,2.29.78,3.25,1.42s1.72,1.47,2.28,2.5c.56,1.03.84,2.26.84,3.69v16.03h-6.04v-3.3h-.21c-.38.74-.89,1.39-1.53,1.95s-1.41,1-2.31,1.33-1.94.49-3.12.49ZM315.34,37.82c1.01,0,1.89-.2,2.65-.6.76-.4,1.35-.94,1.78-1.62.43-.68.64-1.44.64-2.28v-2.58c-.18.14-.47.27-.85.38-.38.11-.81.21-1.28.3-.47.08-.93.16-1.38.23s-.86.13-1.21.17c-.78.11-1.47.3-2.06.55s-1.06.59-1.38,1.01c-.33.42-.49.96-.49,1.61,0,.61.16,1.12.47,1.54.31.42.74.73,1.28.95s1.16.32,1.85.32Z"/>
    <path class="cls-4" d="M338.58,28.07v13.77h-6.39v-23.8h6.02l.11,5.94h-.38c.62-1.99,1.57-3.52,2.84-4.61,1.27-1.09,2.91-1.63,4.93-1.63,1.65,0,3.08.36,4.31,1.07,1.23.72,2.18,1.75,2.85,3.09.67,1.34,1.01,2.94,1.01,4.8v15.13h-6.39v-14.03c0-1.48-.38-2.63-1.14-3.47s-1.81-1.26-3.16-1.26c-.89,0-1.69.19-2.39.59s-1.25.95-1.64,1.69c-.39.74-.59,1.64-.59,2.7Z"/>
    <path class="cls-4" d="M369.98,42.31c-2.4,0-4.47-.51-6.21-1.54-1.74-1.03-3.08-2.46-4.02-4.3s-1.42-3.98-1.42-6.42.47-4.62,1.42-6.46c.94-1.84,2.29-3.27,4.02-4.3,1.74-1.03,3.81-1.54,6.21-1.54,1.4,0,2.7.18,3.9.55,1.19.37,2.25.89,3.17,1.58.92.68,1.68,1.51,2.28,2.49.6.98,1.01,2.08,1.23,3.3l-5.94,1.11c-.13-.62-.33-1.18-.6-1.67-.27-.49-.6-.91-.98-1.26-.38-.35-.83-.61-1.33-.8s-1.06-.28-1.67-.28c-1.14,0-2.09.31-2.86.92s-1.35,1.46-1.75,2.55-.58,2.36-.58,3.79.19,2.65.58,3.75.97,1.95,1.75,2.58c.77.62,1.73.94,2.86.94.61,0,1.17-.1,1.68-.29s.96-.47,1.36-.83.73-.8,1-1.31c.27-.51.46-1.08.57-1.72l5.94,1.09c-.23,1.26-.64,2.39-1.24,3.37-.6.99-1.35,1.83-2.28,2.54-.92.71-1.98,1.25-3.18,1.62s-2.51.55-3.93.55Z"/>
    <path class="cls-4" d="M395.74,42.31c-2.43,0-4.52-.5-6.28-1.49-1.76-.99-3.11-2.41-4.06-4.24s-1.42-4-1.42-6.51.47-4.6,1.4-6.45c.94-1.85,2.26-3.29,3.98-4.32,1.72-1.04,3.73-1.55,6.05-1.55,1.56,0,3.02.25,4.36.75,1.35.5,2.53,1.25,3.55,2.25,1.02,1,1.82,2.25,2.4,3.76.57,1.5.86,3.28.86,5.32v1.79h-19.99v-4h16.86l-2.98,1.06c0-1.23-.19-2.31-.56-3.22s-.94-1.62-1.68-2.13c-.75-.5-1.66-.76-2.76-.76s-2.05.26-2.82.77c-.77.51-1.36,1.2-1.76,2.08-.4.87-.6,1.87-.6,2.99v2.83c0,1.38.23,2.53.69,3.47.46.94,1.11,1.64,1.94,2.11s1.8.7,2.91.7c.75,0,1.43-.11,2.04-.32s1.13-.53,1.56-.95c.43-.42.76-.93.99-1.54l5.79,1.09c-.38,1.31-1.05,2.45-2,3.44-.95.99-2.14,1.75-3.57,2.29-1.43.54-3.07.81-4.93.81Z"/>
    <path class="cls-4" d="M420.41,42.31c-1.92,0-3.61-.27-5.09-.82-1.48-.55-2.68-1.34-3.62-2.38s-1.54-2.3-1.81-3.78l5.94-1.02c.31,1.11.86,1.94,1.64,2.49s1.82.83,3.13.83c1.22,0,2.18-.23,2.88-.69s1.05-1.05,1.05-1.76c0-.62-.25-1.13-.76-1.53s-1.27-.7-2.31-.92l-4.11-.85c-2.3-.47-4.02-1.27-5.15-2.39-1.14-1.13-1.7-2.58-1.7-4.35,0-1.53.42-2.85,1.26-3.95.84-1.1,2-1.95,3.49-2.54,1.49-.6,3.24-.89,5.26-.89,1.87,0,3.5.26,4.88.78,1.38.52,2.49,1.25,3.34,2.2s1.42,2.07,1.7,3.36l-5.66,1c-.24-.81-.71-1.47-1.39-1.99s-1.61-.78-2.78-.78c-1.05,0-1.93.22-2.64.66-.71.44-1.06,1.03-1.06,1.77,0,.6.23,1.1.69,1.51.46.41,1.25.73,2.37.96l4.28.85c2.3.47,4.01,1.23,5.13,2.29,1.12,1.06,1.68,2.44,1.68,4.14,0,1.56-.45,2.93-1.36,4.1s-2.16,2.08-3.76,2.74c-1.6.65-3.44.98-5.52.98Z"/>
  </g>
  <g>
    <polygon class="cls-2" points="22.72 39.98 23.22 39.26 22.22 39.26 22.72 39.98"/>
    <polygon class="cls-1" points="22.22 39.26 5.17 39.26 14.19 52.35 14.2 52.35 22.72 39.98 22.22 39.26"/>
    <polygon class="cls-2" points="51.17 40.09 51.74 39.26 50.6 39.26 51.17 40.09"/>
    <polygon class="cls-5" points="17.06 31.76 0 31.76 5.17 39.26 22.22 39.26 17.06 31.76"/>
    <polygon class="cls-1" points="23.22 39.26 22.72 39.98 31.23 52.35 31.23 52.35 36.91 44.11 33.56 39.26 23.22 39.26"/>
    <polygon class="cls-1" points="14.2 52.35 31.23 52.35 22.72 39.98 14.2 52.35"/>
    <polygon class="cls-1" points="33.56 39.26 36.91 44.11 40.25 39.26 33.56 39.26"/>
    <polygon class="cls-3" points="49.28 26.17 58.3 13.09 41.26 13.09 36.91 19.4 41.57 26.17 49.28 26.17"/>
    <polygon class="cls-3" points="36.91 19.4 33.17 24.82 32.24 26.17 41.57 26.17 36.91 19.4"/>
    <polygon class="cls-4" points="36.91 19.4 33.17 24.82 36.91 19.4 36.91 19.4"/>
    <polygon class="cls-5" points="45.42 31.76 49.28 26.17 41.57 26.17 45.42 31.76"/>
    <polygon class="cls-5" points="23.22 39.26 33.56 39.26 28.39 31.76 23.22 39.26"/>
    <polygon class="cls-5" points="33.56 39.26 40.25 39.26 45.42 31.76 41.57 26.17 32.24 26.17 28.39 31.76 33.56 39.26"/>
    <polygon class="cls-4" points="67.32 0 50.28 0 41.26 13.09 58.3 13.09 67.32 0"/>
    <polygon class="cls-3" points="86.82 13.09 69.78 13.09 60.76 26.17 77.8 26.17 86.82 13.09"/>
    <polygon class="cls-1" points="51.17 40.09 59.62 52.35 59.76 52.35 68.78 39.26 51.74 39.26 51.17 40.09"/>
    <polygon class="cls-1" points="42.72 52.35 59.62 52.35 51.17 40.09 42.72 52.35"/>
    <polygon class="cls-5" points="60.76 26.17 51.74 39.26 68.78 39.26 77.8 26.17 60.76 26.17"/>
    <polygon class="cls-4" points="95.85 0 78.8 0 69.78 13.09 86.82 13.09 95.85 0"/>
    <polygon class="cls-5" points="46.08 32.72 41.57 39.26 50.6 39.26 46.08 32.72"/>
    <g>
      <polygon class="cls-1" points="50.6 39.26 41.57 39.26 38.23 44.11 37.57 45.07 42.58 52.35 42.72 52.35 51.17 40.09 50.6 39.26"/>
      <rect class="cls-1" x="38.58" y="38.74" width="0" height="5.9"/>
    </g>
  </g>
</svg>